<svg id="Capa_1" enable-background="new 0 0 512 512" height="512" viewBox="0 0 512 512" width="512" xmlns="http://www.w3.org/2000/svg"><g><g><g><path d="m397.548 504.5h-283.095c-18.473 0-33.449-14.976-33.449-33.449v-358.765h349.993v358.765c0 18.474-14.976 33.449-33.449 33.449z" fill="#77d1b3"/><path d="m395.997 112.286v358.765c0 18.473-14.975 33.449-33.449 33.449h35c18.473 0 33.449-14.976 33.449-33.449v-358.765z" fill="#67b59f"/><path d="m31.423 88.456c0 13.161 10.669 23.83 23.83 23.83h401.493c13.161 0 23.83-10.669 23.83-23.83s-10.669-23.83-23.83-23.83h-401.492c-13.162-.001-23.831 10.669-23.831 23.83z" fill="#f9bf64"/><path d="m456.747 64.625h-35c13.161 0 23.83 10.669 23.83 23.83s-10.669 23.831-23.83 23.831h35c13.161 0 23.83-10.669 23.83-23.83s-10.669-23.831-23.83-23.831z" fill="#e9a761"/></g></g><g><path d="m162.827 218.273v180.24c0 4.142 3.358 7.5 7.5 7.5s7.5-3.358 7.5-7.5v-180.24c0-4.142-3.358-7.5-7.5-7.5s-7.5 3.358-7.5 7.5z"/><path d="m248.5 218.273v180.24c0 4.142 3.358 7.5 7.5 7.5 4.143 0 7.5-3.358 7.5-7.5v-180.24c0-4.142-3.357-7.5-7.5-7.5-4.142 0-7.5 3.358-7.5 7.5z"/><path d="m334.173 218.273v180.24c0 4.142 3.357 7.5 7.5 7.5s7.5-3.358 7.5-7.5v-180.24c0-4.142-3.357-7.5-7.5-7.5s-7.5 3.358-7.5 7.5z"/><path d="m479.645 172.74h-41.148v-52.954h18.251c17.275 0 31.33-14.055 31.33-31.33 0-17.276-14.055-31.331-31.33-31.331h-127.258v-22.838c0-18.906-15.381-34.287-34.288-34.287h-78.405c-18.906 0-34.287 15.381-34.287 34.287v22.838h-45.807c-4.142 0-7.5 3.358-7.5 7.5s3.358 7.5 7.5 7.5h320.044c9.005 0 16.33 7.326 16.33 16.331 0 9.004-7.325 16.33-16.33 16.33h-401.493c-9.005 0-16.331-7.326-16.331-16.33 0-9.005 7.326-16.331 16.331-16.331h46.45c4.142 0 7.5-3.358 7.5-7.5s-3.358-7.5-7.5-7.5h-46.45c-17.276 0-31.331 14.055-31.331 31.331 0 17.275 14.055 31.33 31.331 31.33h18.25v52.954h-41.148c-13.882 0-25.177 11.294-25.177 25.177v15.811c0 4.142 3.358 7.5 7.5 7.5s7.5-3.358 7.5-7.5v-15.811c0-5.611 4.565-10.177 10.177-10.177h41.147v283.311c0 22.579 18.37 40.949 40.949 40.949h283.096c22.579 0 40.948-18.37 40.948-40.949v-28.777c0-4.142-3.357-7.5-7.5-7.5s-7.5 3.358-7.5 7.5v28.777c0 14.308-11.641 25.949-25.948 25.949h-283.096c-14.308 0-25.949-11.641-25.949-25.949v-351.265h334.993v287.488c0 4.142 3.357 7.5 7.5 7.5s7.5-3.358 7.5-7.5v-219.534h41.148c5.611 0 10.176 4.565 10.176 10.177v15.811c0 4.142 3.357 7.5 7.5 7.5s7.5-3.358 7.5-7.5v-15.811c.001-13.882-11.293-25.177-25.175-25.177zm-282.135-115.615v-22.838c0-10.635 8.652-19.287 19.287-19.287h78.405c10.635 0 19.287 8.652 19.287 19.287v22.838z"/></g></g></svg>